<?xml version="1.0" standalone="no"?>
<!DOCTYPE svg PUBLIC "-//W3C//DTD SVG 20010904//EN"
 "http://www.w3.org/TR/2001/REC-SVG-20010904/DTD/svg10.dtd">
<svg version="1.0" xmlns="http://www.w3.org/2000/svg"
 width="260.000000pt" height="260.000000pt" viewBox="0 0 260.000000 260.000000"
 preserveAspectRatio="xMidYMid meet">
<metadata>
Created by potrace 1.14, written by Peter Selinger 2001-2017
</metadata>
<g transform="translate(0.000000,260.000000) scale(0.100000,-0.100000)"
fill="#000000" stroke="none">
<path d="M1313 2133 c-7 -2 -13 -11 -13 -19 0 -11 -18 -14 -83 -14 -184 0
-345 -80 -451 -224 -31 -42 -56 -66 -80 -74 -37 -14 -96 -73 -96 -98 0 -10 -7
-13 -24 -8 -58 14 -145 -45 -187 -128 -59 -115 7 -293 116 -314 27 -5 34 -12
39 -36 5 -24 1 -34 -18 -49 -50 -40 -58 -137 -17 -217 25 -48 53 -73 92 -81
28 -6 33 -12 45 -59 19 -73 39 -108 96 -169 82 -86 197 -142 345 -168 111 -20
277 -20 357 1 148 38 277 145 343 283 31 66 42 81 61 81 85 1 167 124 141 213
-8 27 -5 35 20 62 37 39 51 67 51 103 l0 29 88 6 c166 11 262 70 262 163 0 55
-18 91 -65 132 -63 56 -132 84 -334 137 -112 29 -125 35 -128 56 -7 48 -59
132 -110 179 -62 57 -137 101 -213 125 -37 12 -67 30 -91 56 -33 35 -40 39
-85 38 -27 0 -55 -3 -61 -6z m111 -44 c8 -9 5 -10 -14 -5 -14 3 -38 6 -53 6
-18 0 -26 4 -21 11 8 14 73 5 88 -12z m10 -49 c110 -24 237 -85 303 -144 47
-43 122 -161 109 -173 -3 -4 -22 12 -42 35 -22 26 -63 55 -111 79 -65 32 -84
37 -142 37 -65 -1 -130 -24 -173 -61 -14 -13 -21 -11 -57 15 -76 55 -182 66
-262 28 -20 -9 -57 -37 -82 -61 l-45 -43 -57 29 c-32 16 -68 29 -81 29 -13 0
-24 4 -24 9 0 9 72 94 110 128 36 33 157 92 210 102 84 16 249 12 344 -9z
m536 -384 c109 -23 260 -78 309 -110 128 -86 118 -192 -22 -235 -34 -10 -94
-22 -132 -26 l-70 -7 -12 63 c-21 112 -85 213 -165 264 -9 6 -19 25 -23 44 -7
33 -7 34 21 28 16 -4 58 -13 94 -21z m-662 -219 c18 -49 80 -117 126 -138 45
-20 126 -25 156 -9 16 9 21 3 35 -41 20 -60 71 -120 132 -156 33 -19 43 -31
44 -51 8 -220 -98 -406 -283 -496 -106 -52 -187 -63 -345 -47 -190 18 -303 62
-401 154 -63 60 -86 102 -107 189 -25 108 -17 278 14 278 35 0 120 50 168 99
27 28 65 79 83 113 18 35 34 64 35 66 2 2 20 -8 40 -23 74 -49 176 -27 246 53
19 22 36 41 39 41 4 1 11 -14 18 -32z m-705 -301 c29 -12 37 -21 32 -33 -3 -9
-9 -59 -12 -110 -6 -100 -12 -107 -55 -73 -58 45 -78 162 -37 214 12 15 24 25
28 23 3 -1 23 -11 44 -21z m1342 -142 c-7 -51 -41 -96 -85 -114 -17 -7 -32
-11 -33 -9 -2 2 -1 43 1 92 l4 87 37 0 c20 0 43 5 51 10 22 14 33 -14 25 -66z"/>
<path d="M1060 1243 c-99 -51 -109 -242 -17 -315 43 -35 140 -13 167 37 16 30
27 32 35 4 4 -11 21 -29 38 -40 90 -55 187 19 187 142 0 71 -17 123 -52 156
-55 52 -142 29 -179 -47 -16 -33 -16 -33 -22 -9 -9 34 -57 77 -92 84 -19 4
-43 -1 -65 -12z m83 -30 c27 -14 29 -17 12 -20 -11 -2 -30 -6 -42 -9 -60 -12
-72 -155 -18 -201 16 -14 36 -23 46 -20 11 3 19 1 19 -3 0 -15 -67 -23 -90
-10 -12 6 -31 32 -42 58 -35 79 -11 177 53 209 30 16 24 16 62 -4z m253 -8
c18 -14 17 -14 -14 -15 -21 0 -42 -9 -57 -25 -21 -20 -25 -34 -25 -83 0 -64
21 -105 62 -118 19 -6 19 -7 4 -16 -19 -11 -53 -2 -78 19 -47 41 -47 168 -1
223 28 34 75 40 109 15z"/>
<path d="M1641 1067 c-13 -13 -14 -34 -2 -41 16 -10 41 5 41 24 0 22 -24 32
-39 17z"/>
<path d="M794 1055 c-4 -9 -2 -21 4 -27 15 -15 44 -1 40 19 -4 23 -36 29 -44
8z"/>
<path d="M880 1044 c-11 -12 -11 -18 1 -30 13 -12 18 -12 34 0 16 12 17 16 6
30 -17 20 -25 20 -41 0z"/>
<path d="M1577 1003 c-24 -23 12 -55 38 -33 12 10 13 16 4 26 -12 15 -31 18
-42 7z"/>
<path d="M1661 991 c-15 -27 9 -46 34 -27 16 12 17 16 6 30 -18 21 -28 20 -40
-3z"/>
<path d="M817 994 c-4 -4 -7 -16 -7 -26 0 -14 6 -19 23 -16 14 2 22 10 22 23
0 20 -25 32 -38 19z"/>
<path d="M932 948 c-7 -7 -12 -16 -12 -22 0 -5 -12 -25 -26 -43 -19 -25 -23
-38 -16 -45 8 -8 16 -7 27 2 18 15 17 16 43 -36 56 -110 195 -171 328 -144 98
20 217 92 254 152 l19 32 10 -27 c12 -31 31 -36 31 -9 0 36 -38 127 -55 130
-13 3 -16 -1 -11 -17 3 -12 8 -29 11 -40 7 -25 -96 -120 -171 -157 -80 -39
-199 -46 -265 -15 -59 28 -104 73 -135 133 -23 45 -23 50 -10 77 19 37 5 56
-22 29z"/>
</g>
</svg>
