<?xml version="1.0" encoding="UTF-8" standalone="no"?>
<svg
   xmlns:dc="http://purl.org/dc/elements/1.1/"
   xmlns:cc="http://creativecommons.org/ns#"
   xmlns:rdf="http://www.w3.org/1999/02/22-rdf-syntax-ns#"
   xmlns:svg="http://www.w3.org/2000/svg"
   xmlns="http://www.w3.org/2000/svg"
   xmlns:sodipodi="http://sodipodi.sourceforge.net/DTD/sodipodi-0.dtd"
   xmlns:inkscape="http://www.inkscape.org/namespaces/inkscape"
   version="1.1"
   id="svg2"
   xml:space="preserve"
   width="1122.52"
   height="793.70667"
   viewBox="0 0 1122.52 793.70667"
   sodipodi:docname="카카오 채널 말풍선 아이콘.ai"><metadata
     id="metadata8"><rdf:RDF><cc:Work
         rdf:about=""><dc:format>image/svg+xml</dc:format><dc:type
           rdf:resource="http://purl.org/dc/dcmitype/StillImage" /></cc:Work></rdf:RDF></metadata><defs
     id="defs6"><clipPath
       clipPathUnits="userSpaceOnUse"
       id="clipPath18"><path
         d="M 0,595.28 H 841.89 V 0 H 0 Z"
         id="path16" /></clipPath></defs><sodipodi:namedview
     pagecolor="#ffffff"
     bordercolor="#666666"
     borderopacity="1"
     objecttolerance="10"
     gridtolerance="10"
     guidetolerance="10"
     inkscape:pageopacity="0"
     inkscape:pageshadow="2"
     inkscape:window-width="640"
     inkscape:window-height="480"
     id="namedview4" /><g
     id="g10"
     inkscape:groupmode="layer"
     inkscape:label="카카오 채널 말풍선 아이콘"
     transform="matrix(1.3333333,0,0,-1.3333333,0,793.70667)"><g
       id="g12"><g
         id="g14"
         clip-path="url(#clipPath18)"><g
           id="g20"
           transform="translate(505.166,266.9675)"><path
             d="m 0,0 h -18.066 v 40.756 c 0,9.38 -5.472,14.426 -13.867,14.426 -9.382,0 -15.402,-5.739 -15.402,-17.364 V 0 h -18.074 v 99.684 h 18.074 V 62.19 c 4.33,6.579 11.339,9.798 20.859,9.798 7.709,0 14.01,-2.519 18.905,-7.701 C -2.526,59.104 0,52.103 0,42.998 Z m -129.901,17.013 c 13.331,0 24.728,7.976 28.164,20.3 h 19.705 c -4.814,-23.721 -23.278,-39.265 -47.869,-39.265 -28.577,0 -51.233,21.31 -51.233,50.976 0,29.663 22.656,50.977 51.233,50.977 24.837,0 43.43,-15.861 48.013,-39.995 h -19.654 c -2.988,13.119 -14.783,21.297 -28.359,21.297 -19.214,0 -31.997,-13.707 -31.997,-32.279 0,-18.582 14.529,-32.011 31.997,-32.011 m 45.581,157.633 c -75.103,0 -135.972,-56.304 -135.972,-125.766 0,-51.298 21.488,-75.788 50.916,-98.113 l 0.137,-0.066 v -60.197 c 0,-2.848 3.24,-4.468 5.522,-2.772 l 51.557,38.295 1.112,-0.48 c 8.64,-1.592 17.575,-2.436 26.728,-2.436 75.095,0 135.965,56.311 135.965,125.769 0,69.462 -60.87,125.766 -135.965,125.766"
             style="fill:#010202;fill-opacity:1;fill-rule:nonzero;stroke:none"
             id="path22" /></g></g></g></g></svg>
